<svg width="116" height="121" viewBox="0 0 116 121" fill="none" xmlns="http://www.w3.org/2000/svg">
<path d="M51.5381 120.515C48.3023 116.064 37.2558 85.4407 49.976 70.2879C58.4561 60.2214 68.7216 59.2677 69.6142 47.9296C70.3953 38.075 63.5889 30.0218 53.5466 32.353C46.0706 34.0484 44.7317 44.5388 49.8644 49.625C49.976 49.731 45.5127 47.9296 44.6201 41.7837C43.7274 35.6378 48.637 30.4456 56.2245 29.9158C67.6058 29.1741 72.5153 39.7704 71.9574 47.6117C71.7343 50.7906 71.1764 55.0292 64.1468 61.5989C61.4688 64.142 56.7824 66.1553 54.3276 70.076C47.0749 82.0499 58.6793 112.991 63.2541 120.409H51.5381V120.515Z" fill="#65320B"/>
<path d="M58.5565 24.0248C64.8969 24.0248 70.0348 19.0937 70.0348 13.0085C70.0348 6.92331 64.8969 1.99219 58.5565 1.99219C52.2162 1.99219 47.0783 6.92331 47.0783 13.0085C47.0783 19.0937 52.2162 24.0248 58.5565 24.0248ZM40.9565 25.074C40.9565 18.9888 35.8186 14.0577 29.4783 14.0577C23.1379 14.0577 18 18.9888 18 25.074C18 31.1592 23.1379 36.0903 29.4783 36.0903C35.8186 36.1953 40.9565 31.1592 40.9565 25.074ZM56.2609 38.3985H55.605C53.4186 35.8805 50.1391 34.3068 46.5317 34.3068C40.1913 34.4117 35.1627 39.4477 35.2721 45.5329C35.3814 51.6181 40.6286 56.4443 46.9689 56.3394H47.4062C49.4832 58.8574 52.7627 60.4312 56.3702 60.4312C62.7106 60.4312 67.8484 55.5001 67.8484 49.4149C67.7391 43.3296 62.6012 38.3985 56.2609 38.3985ZM94.5218 26.2281C91.2422 26.2281 88.2907 27.4871 86.2137 29.5855C84.1367 27.0674 80.8571 25.4937 77.2497 25.4937C70.9093 25.4937 65.7714 30.4248 65.7714 36.51C65.7714 42.5952 70.9093 47.5263 77.2497 47.5263C80.5292 47.5263 83.4808 46.2673 85.5578 44.169C87.6348 46.687 90.9143 48.2608 94.5218 48.2608C100.862 48.2608 106 43.3297 106 37.2444C106 31.1592 100.862 26.2281 94.5218 26.2281ZM81.1851 52.6673C74.8447 52.6673 69.7068 57.5984 69.7068 63.6836C69.7068 69.7688 74.8447 74.7 81.1851 74.7C87.5255 74.7 92.6634 69.7688 92.6634 63.6836C92.6634 57.5984 87.5255 52.6673 81.1851 52.6673Z" fill="#0E932E"/>
<path d="M78 19.9208C78 13.8689 83.1476 8.96484 89.5 8.96484C95.8524 8.96484 101 13.8689 101 19.9208C101 25.9727 95.8524 30.8768 89.5 30.8768C83.1476 30.8768 78 25.9727 78 19.9208Z" fill="#AAD08F"/>
<path d="M54 68.7235C54 62.6717 58.9238 57.7676 65 57.7676C71.0762 57.7676 76 62.6717 76 68.7235C76 74.7754 71.0762 79.6795 65 79.6795C58.9238 79.6795 54 74.7754 54 68.7235Z" fill="#AAD08F"/>
<path d="M34 10.956C34 4.9041 39.1476 0 45.5 0C51.8524 0 57 4.9041 57 10.956C57 17.0078 51.8524 21.9119 45.5 21.9119C39.1476 21.9119 34 17.0078 34 10.956Z" fill="#AAD08F"/>
<path d="M35 63.7431C35 57.6912 40.1476 52.7871 46.5 52.7871C52.8524 52.7871 58 57.6912 58 63.7431C58 69.7949 52.8524 74.699 46.5 74.699C40.1476 74.699 35 69.7949 35 63.7431Z" fill="#AAD08F"/>
<path d="M81 52.788C81 46.7361 86.1476 41.832 92.5 41.832C98.8524 41.832 104 46.7361 104 52.788C104 58.8399 98.8524 63.744 92.5 63.744C86.1476 63.744 81 58.8399 81 52.788Z" fill="#AAD08F"/>
<path d="M53 29.8798C53 23.8279 57.9238 18.9238 64 18.9238C70.0762 18.9238 75 23.8279 75 29.8798C75 35.9317 70.0762 40.8358 64 40.8358C57.9238 40.8358 53 35.9317 53 29.8798Z" fill="#AAD08F"/>
<path d="M14 39.8388C14 33.7869 19.1476 28.8828 25.5 28.8828C31.8524 28.8828 37 33.7869 37 39.8388C37 45.8906 31.8524 50.7947 25.5 50.7947C19.1476 50.7947 14 45.8906 14 39.8388Z" fill="#AAD08F"/>
<path d="M62 12.4501C62 6.12311 67.1476 0.996094 73.5 0.996094C79.8524 0.996094 85 6.12311 85 12.4501C85 18.777 79.8524 23.904 73.5 23.904C67.1476 23.904 62 18.777 62 12.4501Z" fill="#B6F38B"/>
<path d="M60 48.8036C60 42.7518 65.1476 37.8477 71.5 37.8477C77.8524 37.8477 83 42.7518 83 48.8036C83 54.8555 77.8524 59.7596 71.5 59.7596C65.1476 59.7596 60 54.8555 60 48.8036Z" fill="#B6F38B"/>
<path d="M32 29.3817C32 23.0547 37.1476 17.9277 43.5 17.9277C49.8524 17.9277 55 23.0547 55 29.3817C55 35.7087 49.8524 40.8357 43.5 40.8357C37.1476 40.8357 32 35.7087 32 29.3817Z" fill="#B6F38B"/>
<path d="M18 55.7763C18 49.7244 23.1476 44.8203 29.5 44.8203C35.8524 44.8203 41 49.7244 41 55.7763C41 61.8281 35.8524 66.7322 29.5 66.7322C23.1476 66.7322 18 61.8281 18 55.7763Z" fill="#B6F38B"/>
<path d="M11.7438 95.3086H10.0158V86.9086H16.1718V88.4566H11.7438V90.1606H15.1638V91.6846H11.7438V95.3086ZM22.6745 94.0006C22.8185 94.0006 22.9345 93.9766 23.0225 93.9286V95.1646C22.8065 95.3326 22.5025 95.4166 22.1105 95.4166C21.4305 95.4166 20.9785 95.1606 20.7545 94.6486C20.2265 95.1926 19.5385 95.4646 18.6905 95.4646C18.0345 95.4646 17.5025 95.2806 17.0945 94.9126C16.6865 94.5446 16.4825 94.0606 16.4825 93.4606C16.4825 92.8206 16.7145 92.3326 17.1785 91.9966C17.6425 91.6606 18.1985 91.4926 18.8465 91.4926C19.5265 91.4926 20.1025 91.6166 20.5745 91.8646V91.6846C20.5745 90.9326 20.0465 90.5566 18.9905 90.5566C18.3425 90.5566 17.7385 90.7246 17.1785 91.0606V89.6446C17.7865 89.3246 18.5265 89.1646 19.3985 89.1646C20.2625 89.1646 20.9505 89.3726 21.4625 89.7886C21.9905 90.2046 22.2545 90.7806 22.2545 91.5166V93.5446C22.2545 93.8486 22.3945 94.0006 22.6745 94.0006ZM20.5745 93.5446V92.9446C20.2225 92.7126 19.8065 92.5966 19.3265 92.5966C18.9665 92.5966 18.6785 92.6646 18.4625 92.8006C18.2545 92.9366 18.1505 93.1286 18.1505 93.3766C18.1505 93.6326 18.2465 93.8286 18.4385 93.9646C18.6305 94.0926 18.8905 94.1566 19.2185 94.1566C19.8105 94.1566 20.2625 93.9526 20.5745 93.5446ZM25.8852 95.3086H24.1932V89.3206H25.8852V90.0526C26.3332 89.4606 26.9412 89.1646 27.7092 89.1646C28.1412 89.1646 28.5252 89.2606 28.8612 89.4526C29.2052 89.6446 29.4412 89.8886 29.5692 90.1846C29.7692 89.8806 30.0572 89.6366 30.4332 89.4526C30.8092 89.2606 31.2092 89.1646 31.6332 89.1646C32.2892 89.1646 32.8092 89.3726 33.1932 89.7886C33.5772 90.2046 33.7692 90.7966 33.7692 91.5646V95.3086H32.0772V91.9486C32.0772 91.1246 31.7452 90.7126 31.0812 90.7126C30.8252 90.7126 30.5812 90.7886 30.3492 90.9406C30.1172 91.0926 29.9452 91.2886 29.8332 91.5286V95.3086H28.1412V91.9486C28.1412 91.1246 27.8092 90.7126 27.1452 90.7126C26.9052 90.7126 26.6652 90.7886 26.4252 90.9406C26.1852 91.0926 26.0052 91.2806 25.8852 91.5046V95.3086ZM41.0026 94.0006C41.1466 94.0006 41.2626 93.9766 41.3506 93.9286V95.1646C41.1346 95.3326 40.8306 95.4166 40.4386 95.4166C39.7586 95.4166 39.3066 95.1606 39.0826 94.6486C38.5546 95.1926 37.8666 95.4646 37.0186 95.4646C36.3626 95.4646 35.8306 95.2806 35.4226 94.9126C35.0146 94.5446 34.8106 94.0606 34.8106 93.4606C34.8106 92.8206 35.0426 92.3326 35.5066 91.9966C35.9706 91.6606 36.5266 91.4926 37.1746 91.4926C37.8546 91.4926 38.4306 91.6166 38.9026 91.8646V91.6846C38.9026 90.9326 38.3746 90.5566 37.3186 90.5566C36.6706 90.5566 36.0666 90.7246 35.5066 91.0606V89.6446C36.1146 89.3246 36.8546 89.1646 37.7266 89.1646C38.5906 89.1646 39.2786 89.3726 39.7906 89.7886C40.3186 90.2046 40.5826 90.7806 40.5826 91.5166V93.5446C40.5826 93.8486 40.7226 94.0006 41.0026 94.0006ZM38.9026 93.5446V92.9446C38.5506 92.7126 38.1346 92.5966 37.6546 92.5966C37.2946 92.5966 37.0066 92.6646 36.7906 92.8006C36.5826 92.9366 36.4786 93.1286 36.4786 93.3766C36.4786 93.6326 36.5746 93.8286 36.7666 93.9646C36.9586 94.0926 37.2186 94.1566 37.5466 94.1566C38.1386 94.1566 38.5906 93.9526 38.9026 93.5446ZM44.1174 95.4646C43.6214 95.4646 43.2294 95.3326 42.9414 95.0686C42.6614 94.7966 42.5214 94.3766 42.5214 93.8086V86.9086H44.2134V93.3646C44.2134 93.7646 44.3934 93.9646 44.7534 93.9646C44.9214 93.9646 45.0654 93.9286 45.1854 93.8566V95.2486C44.8974 95.3926 44.5414 95.4646 44.1174 95.4646ZM47.1217 97.7806C46.6257 97.7806 46.2257 97.7006 45.9217 97.5406V96.0646C46.2017 96.2246 46.5057 96.3046 46.8337 96.3046C47.1377 96.3046 47.3897 96.2086 47.5897 96.0166C47.7977 95.8326 47.9897 95.5286 48.1657 95.1046L45.5857 89.3206H47.4097L48.9937 93.2566L50.4937 89.3206H52.2817L49.5097 95.9326C48.9817 97.1646 48.1857 97.7806 47.1217 97.7806ZM60.6812 95.3086H56.4572V86.9086H60.4052C61.1812 86.9086 61.7972 87.0926 62.2532 87.4606C62.7172 87.8286 62.9492 88.3446 62.9492 89.0086C62.9492 89.4166 62.8492 89.7646 62.6492 90.0526C62.4492 90.3406 62.1972 90.5486 61.8932 90.6766C62.3492 90.7726 62.7492 91.0206 63.0932 91.4206C63.4292 91.8126 63.5972 92.3126 63.5972 92.9206C63.5972 93.6326 63.3332 94.2086 62.8052 94.6486C62.2852 95.0886 61.5772 95.3086 60.6812 95.3086ZM58.1852 91.6246V93.8206H60.3572C60.7892 93.8206 61.1252 93.7286 61.3652 93.5446C61.6052 93.3526 61.7252 93.0806 61.7252 92.7286C61.7252 92.3766 61.6052 92.1046 61.3652 91.9126C61.1252 91.7206 60.7892 91.6246 60.3572 91.6246H58.1852ZM58.1852 88.3486V90.1966H60.1292C60.4892 90.1966 60.7692 90.1166 60.9692 89.9566C61.1772 89.7966 61.2812 89.5726 61.2812 89.2846C61.2812 88.9886 61.1772 88.7606 60.9692 88.6006C60.7692 88.4326 60.4892 88.3486 60.1292 88.3486H58.1852ZM66.775 95.3086H65.047V86.9086H66.763L69.199 90.3886L71.635 86.9086H73.339V95.3086H71.635V89.5606L69.703 92.2606H68.743L66.775 89.5606V95.3086ZM76.9235 95.3086H75.1955V86.9086H76.9235V90.2206L80.0195 86.9086H82.1315L78.5675 90.7606L82.7435 95.3086H80.5355L76.9235 91.4326V95.3086ZM83.1041 88.4566V86.9086H90.1481V88.4566H87.4841V95.3086H85.7561V88.4566H83.1041ZM93.1657 95.3086H91.4377V86.9086H97.5937V88.4566H93.1657V90.1606H96.5857V91.6846H93.1657V95.3086ZM102.821 95.4766C101.541 95.4766 100.477 95.0686 99.629 94.2526C98.773 93.4206 98.345 92.3726 98.345 91.1086C98.345 89.8286 98.773 88.7806 99.629 87.9646C100.477 87.1486 101.561 86.7406 102.881 86.7406C103.849 86.7406 104.689 86.9526 105.401 87.3766V89.0806C104.625 88.6006 103.825 88.3606 103.001 88.3606C102.145 88.3606 101.449 88.6166 100.913 89.1286C100.377 89.6326 100.109 90.3046 100.109 91.1446C100.109 91.9766 100.369 92.6406 100.889 93.1366C101.409 93.6326 102.053 93.8806 102.821 93.8806C103.557 93.8806 104.121 93.6966 104.513 93.3286V90.4366H106.241V94.1446C105.881 94.5286 105.401 94.8446 104.801 95.0926C104.177 95.3486 103.517 95.4766 102.821 95.4766Z" fill="white"/>
</svg>
